# xmcd
#
# Track frame offsets:
#	150
#	16042
#	29242
#	40792
#	51940
#	60847
#	73045
#	83105
#	91435
#	105545
#	117100
#	127947
#	141480
#	157005
#	176543
#	192706
#	202194
#	219632
#	226120
#	237708
#	253083
#	264408
#	273033
#	284546
#
# Disc length: 4061 seconds
#
# Revision: 1
# Processed by: cddbd v1.5.2PL0 Copyright (c) Steve Scherf et al.
# Submitted via: audiograbber 1.83.01
#
DISCID=650fdb18
DTITLE=Sá and Guarabira - Nunca (1974) - Cadernos de Viagem (1975)
DYEAR=1975
DGENRE=MPB
TTITLE0=As Canções Que Eu Faço
TTITLE1=Canção da Estrada
TTITLE2=Justo Momento
TTITLE3=São Nicolau
TTITLE4=Verão do Cometa
TTITLE5=Esses Cabides Vazios
TTITLE6=Nuvens D'água
TTITLE7=Divina Decadência
TTITLE8=Voar É Como O Passarinho
TTITLE9=Apreciando a Cidade
TTITLE10=Terras do Sul
TTITLE11=Coisa Á Toa
TTITLE12=Cadernos de Viagem
TTITLE13=A Dança do Atrevido
TTITLE14=Muchacha
TTITLE15=Passo-Preto
TTITLE16=Lá Vem o Bicho
TTITLE17=Velho Camalião
TTITLE18=Xote Correntino
TTITLE19=Roda O Mundo
TTITLE20=Ondina Paconé
TTITLE21=Tarzan dos Cromados
TTITLE22=O Que Você Quiser
TTITLE23=Mundo Invisível
EXTD=
EXTT0=
EXTT1=
EXTT2=
EXTT3=
EXTT4=
EXTT5=
EXTT6=
EXTT7=
EXTT8=
EXTT9=
EXTT10=
EXTT11=
EXTT12=
EXTT13=
EXTT14=
EXTT15=
EXTT16=
EXTT17=
EXTT18=
EXTT19=
EXTT20=
EXTT21=
EXTT22=
EXTT23=
PLAYORDER=
